<?xml version="1.0" encoding="iso-8859-1"?>
<!-- Generator: Adobe Illustrator 19.0.0, SVG Export Plug-In . SVG Version: 6.00 Build 0)  -->
<svg version="1.1" id="Layer_1" xmlns="http://www.w3.org/2000/svg" xmlns:xlink="http://www.w3.org/1999/xlink" x="0px" y="0px"
	 viewBox="0 0 195.887 195.887" style="enable-background:new 0 0 195.887 195.887;" xml:space="preserve">
<g>
	<g>
		<g>
			<path d="M137.367,85.868c-0.883,0-1.755,0.025-2.625,0.066V29.8c0-19.564-33.008-29.8-65.616-29.8
				C36.518,0,3.508,10.236,3.508,29.8v101.447h0.058c1.212,18.849,33.566,28.71,65.56,28.71c5.493,0,10.979-0.317,16.333-0.898
				c7.525,21.423,27.946,36.828,51.908,36.828c30.335,0,55.012-24.677,55.012-55.012S167.703,85.868,137.367,85.868z M69.129,15.217
				c32.737,0,50.399,10.35,50.399,14.583c0,4.233-17.662,14.583-50.399,14.583c-32.74,0-50.402-10.35-50.402-14.583
				C18.727,25.567,36.389,15.217,69.129,15.217z M18.727,49.552C31.39,56.189,50.32,59.6,69.129,59.6
				c18.809,0,37.733-3.414,50.399-10.048v14.253c0,4.233-17.662,14.583-50.399,14.583c-32.74,0-50.402-10.35-50.402-14.583V49.552z
				 M82.461,144.106c-4.128,0.39-8.546,0.636-13.332,0.636c-32.74,0-50.402-10.353-50.402-14.583v-14.205
				c12.663,6.637,31.593,10.051,50.402,10.051c5.217,0,10.426-0.292,15.524-0.812c-1.484,4.973-2.293,10.239-2.293,15.689
				C82.36,141.967,82.401,143.038,82.461,144.106z M69.129,110.786c-32.74,0-50.402-10.348-50.402-14.583V83.555
				C31.39,90.192,50.32,93.603,69.129,93.603c18.809,0,37.733-3.414,50.399-10.048v5.298c-10.842,3.731-20.163,10.753-26.757,19.876
				C86.07,109.972,78.206,110.786,69.129,110.786z M137.367,180.675c-21.941,0-39.793-17.852-39.793-39.795
				s17.852-39.795,39.793-39.795c21.943,0,39.795,17.852,39.795,39.795S159.313,180.675,137.367,180.675z"/>
			<path d="M136.429,134.39c-6.404-0.763-9.658-1.674-9.658-4.558c0-4.464,6.465-4.943,9.244-4.943
				c4.088,0,8.613,1.976,10.086,4.408l0.586,0.971l9.346-4.324l-0.571-1.164c-3.284-6.716-9.115-8.742-13.617-9.569v-5.945h-10.933
				v5.909c-9.627,1.501-15.336,6.924-15.336,14.657c0,12.727,11.938,14.058,19.828,14.941c7.17,0.852,10.512,2.577,10.512,5.42
				c0,5.509-7.778,5.935-10.165,5.935c-5.351,0-10.507-2.65-11.989-6.163l-0.492-1.174l-10.14,4.299l0.5,1.169
				c2.853,6.683,8.965,10.893,17.279,11.943v6.409h10.933v-6.731c7.979-0.982,15.663-6.082,15.663-15.689
				C157.51,136.987,144.826,135.425,136.429,134.39z"/>
		</g>
	</g>
</g>
<g>
</g>
<g>
</g>
<g>
</g>
<g>
</g>
<g>
</g>
<g>
</g>
<g>
</g>
<g>
</g>
<g>
</g>
<g>
</g>
<g>
</g>
<g>
</g>
<g>
</g>
<g>
</g>
<g>
</g>
</svg>
